<?xml version="1.0" encoding="utf-8"?>
<!-- Generator: Adobe Illustrator 18.0.0, SVG Export Plug-In . SVG Version: 6.00 Build 0)  -->
<!DOCTYPE svg PUBLIC "-//W3C//DTD SVG 1.1//EN" "http://www.w3.org/Graphics/SVG/1.1/DTD/svg11.dtd">
<svg version="1.1" id="Layer_1" xmlns="http://www.w3.org/2000/svg" xmlns:xlink="http://www.w3.org/1999/xlink" x="0px" y="0px"
	 viewBox="0 0 150 40" enable-background="new 0 0 150 40" xml:space="preserve">
<text transform="matrix(1 0 0 1 35.3314 34.1668)" font-family="'SourceSansPro-Semibold'" font-size="45.0897">TRIVE</text>
<rect x="5.6" y="1.3" width="28" height="37.5"/>
<g>
	<path fill="#FFFFFF" d="M12.3,26.8c2.1,2,5,3.3,7.7,3.3c3.3,0,5.1-1.5,5.1-3.8c0-2.4-1.9-3.2-4.6-4.3l-4-1.8c-2.9-1.2-6-3.5-6-7.8
		c0-4.7,4.1-8.3,9.9-8.3c3.5,0,6.8,1.4,9.1,3.7l-2.7,3.3C25,9.6,23,8.7,20.5,8.7c-2.8,0-4.6,1.3-4.6,3.5c0,2.3,2.3,3.2,4.7,4.1
		l4,1.7c3.5,1.5,6,3.7,6,8c0,4.8-4,8.7-10.6,8.7c-4,0-7.8-1.6-10.6-4.3L12.3,26.8z"/>
</g>
<polyline fill="#FFFFFF" points="58.5,4.1 56,11.1 61.6,10 "/>
<polyline fill="#FFFFFF" points="145,29.1 143.1,35.4 148.5,35.4 "/>
</svg>
